<svg width="104" height="91" viewBox="0 0 104 91" fill="none" xmlns="http://www.w3.org/2000/svg">
<path fill-rule="evenodd" clip-rule="evenodd" d="M22.0452 0.960903C19.0282 1.53206 15.9059 2.79491 13.3483 4.47811C11.8229 5.48237 9.06608 8.07102 7.87156 9.62114C5.67558 12.471 4.12067 16.0667 3.46963 19.8012C3.00087 22.4893 3.1706 26.5635 3.86209 29.2219C5.55644 35.7359 10.2839 41.4246 16.3754 44.2792C18.0088 45.0446 21.2039 46.0782 21.937 46.0782C22.2972 46.0782 22.3131 46.327 22.3131 51.9551V57.8321L13.1989 57.8365C4.76395 57.8405 4.02525 57.8684 3.28774 58.2086C1.34795 59.1039 0.440906 61.4519 1.35253 63.2188C1.54816 63.5979 6.40512 69.6802 12.1458 76.735C21.1481 87.798 22.699 89.6129 23.4244 89.9338C24.2374 90.2934 25.562 90.3042 63.2609 90.2555L102.256 90.2051L102.63 89.7043C102.992 89.22 103.004 88.2689 103.004 60.6542C103.003 33.0562 102.99 32.0763 102.625 31.2505C102.168 30.217 101.215 29.4516 100.008 29.149C99.4263 29.0029 97.3767 28.9454 94.1637 28.9846L89.2155 29.045L88.735 29.604C88.1025 30.3399 88.1288 30.8423 88.8368 31.5505L89.4191 32.1329H94.4903C98.5171 32.1329 99.6074 32.1884 99.7855 32.4032C99.9498 32.6012 99.9965 39.5968 99.9594 58.567L99.9088 84.4605L89.4498 71.6041C82.7252 63.3377 78.7418 58.6019 78.2936 58.3397C77.6212 57.9462 77.2554 57.9297 68.0818 57.8745L58.5675 57.8173L58.0711 58.3138C57.4364 58.9485 57.4216 59.8101 58.0358 60.3873C58.4952 60.8188 58.5313 60.8204 67.5485 60.8234C72.527 60.8252 76.697 60.8923 76.8156 60.9728C76.9339 61.0533 81.8052 66.9912 87.6407 74.168L98.2507 87.2169L61.5321 87.2673L24.8135 87.3175L24.3677 86.8688C23.4192 85.9142 3.99198 61.9031 3.98859 61.6812C3.9866 61.5521 4.12585 61.3057 4.29798 61.1333C4.57928 60.8522 7.0474 60.8204 28.4887 60.8204H52.3663L52.779 60.2954C53.3269 59.5992 53.3006 58.9186 52.7029 58.3212L52.2141 57.8321H38.8572H25.5006V52.1544V46.4766H34.8719C43.8698 46.4766 44.2744 46.4607 45.029 46.0756C45.8917 45.6355 46.3323 45.0811 46.622 44.0716C46.9591 42.8959 46.5403 41.9739 44.9053 40.2939C44.0941 39.4601 43.4303 38.7232 43.4303 38.6561C43.4303 38.5889 43.9258 37.8783 44.5314 37.0767C46.8891 33.9559 48.4237 29.902 48.9102 25.5088L49.0371 24.3633H51.6449H54.2527L56.4375 26.5239L58.6221 28.6846L58.3737 29.4376C57.9904 30.5989 58.204 33.21 58.7815 34.4239C59.4166 35.7586 60.9121 37.2189 62.3091 37.8684C63.2615 38.3112 63.7345 38.4003 65.1493 38.4039C66.67 38.4079 66.9853 38.3401 68.1745 37.7546C69.0197 37.3385 69.8284 36.738 70.4007 36.1015C71.255 35.1514 72.1178 33.3581 72.1178 32.5329C72.1178 32.1671 72.3495 32.1484 77.5758 32.092C82.6162 32.0378 83.0657 32.0042 83.4527 31.6537C84.0223 31.1378 84.0223 29.9405 83.4527 29.4245C83.0651 29.0733 82.6142 29.0406 77.4214 28.9866L71.8092 28.9282L71.3397 28.0431C70.7316 26.897 69.1688 25.4427 67.9774 24.9146C65.902 23.9944 63.1412 24.2699 61.1787 25.5933L60.3003 26.1858L58.1904 24.0994C57.0302 22.9519 55.7938 21.8695 55.4432 21.694C54.9445 21.4446 54.1618 21.3751 51.8513 21.3751H48.8973L48.6413 19.7315C48.1651 16.6741 46.5084 12.5805 45.0133 10.7667C44.2302 9.81678 43.2897 9.72852 42.648 10.5445C42.0822 11.2635 42.1282 11.7665 42.8645 12.919C46.9666 19.3392 46.9262 27.8634 42.7631 34.299C42.2481 35.0951 41.4381 36.1659 40.963 36.6788C40.0135 37.7038 39.6452 38.3031 39.6452 38.8224C39.6452 39.0099 40.5416 40.0743 41.6373 41.1878C42.733 42.3012 43.6295 43.2813 43.6295 43.366C43.6295 43.4507 39.0351 43.4844 33.4196 43.4413L23.2096 43.3626L21.2174 42.8279C17.0944 41.7213 13.2056 39.2302 10.6517 36.0597C9.01588 34.0286 7.34264 30.6903 6.73662 28.2481C6.1041 25.6993 6.1031 21.4314 6.73422 18.9097C8.8834 10.3238 16.0907 4.29025 24.8823 3.71729C29.0704 3.44437 33.7923 4.72574 37.1908 7.0576C38.6554 8.06246 40.0436 7.62059 40.0436 6.14936C40.0436 5.22359 39.2007 4.54963 36.1588 3.04354C32.7522 1.35695 30.6307 0.840974 26.6959 0.74236C24.5089 0.687575 23.152 0.751325 22.0452 0.960903ZM69.5626 9.48448C68.967 10.1188 69.0172 10.8738 69.7075 11.6599L70.2854 12.3182L69.7075 12.965C68.8225 13.9553 68.9486 15.0586 69.9973 15.4997C70.6964 15.7935 71.3562 15.6188 72.0694 14.9508L72.5188 14.5297L73.0894 15.0764C73.8723 15.8264 74.8154 15.8437 75.4382 15.1198C75.6938 14.8225 75.903 14.4454 75.903 14.2819C75.903 13.8796 75.4031 12.9385 75.0212 12.6218C74.7445 12.3921 74.7646 12.3004 75.2075 11.7741C75.9277 10.9183 76.0324 10.2885 75.5605 9.65362C74.9939 8.8916 73.9642 8.83662 73.1462 9.52492L72.5256 10.0471L71.8546 9.53528C71.0099 8.89101 70.1384 8.87168 69.5626 9.48448ZM17.9805 13.427C16.4027 14.2082 15.5397 15.6453 15.5397 17.4919C15.5397 18.992 16.0178 19.857 17.9724 21.893L19.5808 23.5683L17.7875 25.4222C15.7542 27.5237 15.4552 28.1501 15.5765 30.0536C15.6417 31.0778 15.7758 31.4858 16.2734 32.1755C17.0398 33.2377 18.6447 34.1255 19.7958 34.1239C21.4489 34.1217 22.0699 33.7904 24.0858 31.834L26.0007 29.9759L27.7456 31.6631C29.7033 33.5559 30.715 34.1163 32.1745 34.1163C34.5828 34.1163 36.6547 32.0476 36.6547 29.6426C36.6547 28.1977 36.2547 27.4935 34.3097 25.5126L32.4059 23.5738L34.2931 21.6279C35.815 20.0582 36.2313 19.4986 36.4445 18.7354C37.2567 15.8262 35.1564 13.0079 32.176 13.0079C30.6118 13.0079 29.7709 13.4691 27.7833 15.4176L25.9819 17.1835L24.2969 15.4724C23.3702 14.5313 22.2534 13.5938 21.8151 13.389C20.7198 12.8772 19.0581 12.8937 17.9805 13.427ZM83.0738 14.6596C80.3162 15.4401 78.3761 18.3738 78.7902 21.1366C79.0783 23.0577 80.5049 24.9417 82.278 25.7425C83.4027 26.2507 85.4113 26.2864 86.7729 25.8224C88.0896 25.3738 89.6634 23.7999 90.112 22.4833C90.576 21.1216 90.5404 19.1131 90.0321 17.9883C88.8613 15.3963 85.7426 13.9043 83.0738 14.6596ZM18.9611 16.4571C18.1008 17.3729 18.3228 17.829 20.9186 20.4786C22.9935 22.5963 23.3092 23.0053 23.3092 23.5734C23.3092 24.143 22.9978 24.5432 20.9186 26.6464C18.2949 29.3004 18.0933 29.7241 19.0171 30.6477C19.9372 31.5679 20.5194 31.2712 23.3056 28.4613C26.1441 25.5991 26.004 25.5923 29.1941 28.7461C31.7766 31.2991 32.1737 31.5049 33.0887 30.764C33.4182 30.4973 33.5491 30.1835 33.5491 29.6614C33.5491 28.9954 33.3427 28.7248 31.1849 26.5613C28.0939 23.4623 28.0996 23.6714 31.0238 20.7142C33.8879 17.8176 34.0987 17.4042 33.1795 16.4852C32.2689 15.5744 31.8559 15.7712 29.1862 18.3868C27.0792 20.4511 26.6577 20.7774 26.0983 20.7774C25.5389 20.7774 25.1173 20.4511 23.0104 18.3868C20.3367 15.7672 19.8342 15.5278 18.9611 16.4571ZM83.8954 17.607C81.4845 18.1168 81.0824 21.7358 83.3089 22.8873C84.9784 23.7505 87.1927 22.5921 87.4007 20.7463C87.6365 18.6539 85.9762 17.167 83.8954 17.607ZM63.8502 27.5801C62.2284 28.1792 61.1608 29.699 61.1608 31.4087C61.1608 32.8636 62.0981 34.3621 63.4518 35.0715C64.3684 35.5519 66.1022 35.4797 67.0983 34.9199C69.6491 33.4864 69.8276 29.7592 67.4252 28.0909C66.505 27.452 64.8411 27.2142 63.8502 27.5801ZM6.60951 46.34C5.92918 47.0643 6.05349 47.7568 7.05656 48.8292L7.93671 49.7701L7.05656 50.7016C6.03297 51.785 5.90866 52.5307 6.6374 53.2154C7.37989 53.9129 8.22577 53.7877 9.26868 52.8263L10.1608 52.0039L11.0529 52.8263C12.1607 53.8475 13.0825 53.9497 13.7322 53.1236C14.3641 52.3203 14.2537 51.7479 13.265 50.7016L12.3849 49.7701L13.265 48.8292C14.2525 47.7735 14.3621 47.2046 13.7322 46.4039C13.0825 45.5777 12.1607 45.6799 11.0529 46.7011L10.1608 47.5235L9.26868 46.7011C8.20267 45.7184 7.30778 45.5969 6.60951 46.34ZM1.0537 61.7169C1.0553 62.2647 1.09395 62.4651 1.13977 62.1623C1.18539 61.8595 1.18419 61.4113 1.13698 61.1662C1.08976 60.9212 1.05231 61.169 1.0537 61.7169ZM56.974 71.7445C56.0721 72.2195 55.5328 73.2337 55.6542 74.227C55.7261 74.8169 56.3305 75.7554 58.4038 78.4961C61.7909 82.9739 62.0579 83.2419 63.4082 83.5221C64.1371 83.6736 67.7179 83.7263 74.6236 83.6877C83.8811 83.6359 84.8246 83.6 85.4123 83.2789C86.504 82.6822 86.9935 81.1455 86.4305 80.0816C86.0978 79.4531 80.9737 72.7177 80.5065 72.295C79.5493 71.4286 79.116 71.3969 68.1302 71.3877C58.3574 71.3796 57.6225 71.4031 56.974 71.7445ZM59.3678 74.6649C59.3678 74.7189 60.3595 76.0636 61.5718 77.6532L63.7757 80.543H73.4356H83.0953L80.8438 77.5641L78.5924 74.5852L68.9801 74.5758C63.6932 74.5706 59.3678 74.6107 59.3678 74.6649ZM44.2332 75.8086C43.9626 75.9504 43.604 76.3116 43.4363 76.6113C43.1628 77.1005 43.1628 77.2121 43.4363 77.7014C43.9457 78.6118 44.4955 78.7676 46.9842 78.7062C49.1818 78.652 49.2561 78.6353 49.7234 78.0914C49.9876 77.784 50.2037 77.3633 50.2037 77.1563C50.2037 76.9493 49.9876 76.5286 49.7234 76.2212C49.2561 75.6773 49.1818 75.6606 46.9842 75.6064C45.4253 75.5679 44.5728 75.6307 44.2332 75.8086ZM41.9631 80.956C41.2831 81.4907 41.2283 82.682 41.8575 83.2514C42.2471 83.604 42.642 83.6309 47.43 83.6309C52.4699 83.6309 52.593 83.6214 53.0205 83.1938C53.6482 82.5659 53.6018 81.6001 52.9153 81.0096C52.378 80.5474 52.3262 80.543 47.4304 80.543C42.7318 80.543 42.4621 80.5634 41.9631 80.956Z" fill="#C4C4C4"/>
</svg>
